inDegrees=yes
name=ik_S56_A09_T01
DataType=double
version=3
OpenSimVersion=4.3-2021-08-27-4bc7ad9
endheader
time	pelvis_tilt	pelvis_list	pelvis_rotation	pelvis_tx	pelvis_ty	pelvis_tz	hip_flexion_r	hip_adduction_r	hip_rotation_r	knee_angle_r	knee_angle_r_beta	ankle_angle_r	subtalar_angle_r	mtp_angle_r	hip_flexion_l	hip_adduction_l	hip_rotation_l	knee_angle_l	knee_angle_l_beta	ankle_angle_l	subtalar_angle_l	mtp_angle_l	lumbar_extension	lumbar_bending	lumbar_rotation	arm_flex_r	arm_add_r	arm_rot_r	elbow_flex_r	pro_sup_r	wrist_flex_r	wrist_dev_r	arm_flex_l	arm_add_l	arm_rot_l	elbow_flex_l	pro_sup_l	wrist_flex_l	wrist_dev_l
0	0	0	0	0	0.9399999999999999	0	0	0	0	0	0	0	0	0	0	0	0	0	0	0	0	0	0	0	0	0	0	0	0	89.99999999963507	0	0	0	0	0	0	89.99999999869995	0	0
0.02	-7.126364105161126	-4.806465372697732	29.87471291724083	0	0.9399999999999999	0	2.928339205855866	-1.371871046467666	-0.9860179393981869	4.534294652896984	0.0791383709486258	0	0	0	2.928339205855866	-1.371871046467666	-0.9860179393981869	4.534294652896984	0.0791383709486258	0	0	0	-5.883894967880789	-1.506620811206652	10.04310692130371	26.07722539391196	-10.15215221384175	9.32394019351355	47.29787157754532	135.3469913836519	0	0	28.83085934938321	-3.523715660648529	17.14329220916661	46.50228790819576	125.5815739156552	0	0
0.04	-6.754894412146863	-4.753927257241688	30.06823203009413	0	0.9399999999999999	0	29.74825484450101	-13.94409904544725	-9.269249322565022	47.30573322648019	0.8256407998721598	0	0	0	29.74825484450101	-13.94409904544725	-9.269249322565022	47.30573322648019	0.8256407998721598	0	0	0	-6.201486308419606	-1.343033214400711	9.908627413471361	26.08407654170005	-10.18301422086628	9.347516943861828	47.25259700745751	135.300640709206	0	0	28.80785587641655	-3.475751631398542	17.15142581045946	46.46045717767103	125.6163791810769	0	0
0.06	-6.744183496456629	-4.749378753610628	30.07615220294209	0	0.9399999999999999	0	29.75982495200182	-13.93167505729257	-9.270590562737636	47.30938550869573	0.8257045442220329	0	0	0	29.75982495200182	-13.93167505729257	-9.270590562737636	47.30938550869573	0.8257045442220329	0	0	0	-6.190587673601081	-1.344766950404875	9.907503049930861	26.07916493909609	-10.19469515091806	9.366009857947216	47.24065485751633	135.2944500995971	0	0	28.79837793082628	-3.478998389159293	17.1675083586611	46.47840688803935	125.6069003895655	0	0
0.08	-6.720081645499324	-4.733665236175423	30.09345259810484	0	0.9399999999999999	0	29.76293885022104	-13.92744034602283	-9.271015939733454	47.31036840397062	0.8257216989807821	0	0	0	29.76293885022104	-13.92744034602283	-9.271015939733454	47.31036840397062	0.8257216989807821	0	0	0	-6.16167291204832	-1.344006405575873	9.910770987791627	26.03301903983777	-10.19951698415037	9.345843797003186	47.20640619556063	135.3365576353862	0	0	28.74537954257405	-3.473648652396184	17.17684867707693	46.47652993546575	125.6054053865451	0	0
0.1	-6.697215244419111	-4.729327609070431	30.11215367665983	0	0.9399999999999999	0	29.7633400488187	-13.92710900680793	-9.2710558261833	47.31050768682881	0.8257241299252491	0	0	0	29.7633400488187	-13.92710900680793	-9.2710558261833	47.31050768682881	0.8257241299252491	0	0	0	-6.139318678821574	-1.352474672525242	9.914100946614479	26.05920244043594	-10.21835097191424	9.351014022056452	47.19807048383375	135.3392207093079	0	0	28.72917270036569	-3.475887225523274	17.17993377643531	46.47474037017202	125.6042914450456	0	0
0.12	-6.685046634523929	-4.710816334073848	30.13374882624301	0	0.9399999999999999	0	29.78357198717961	-13.91287414985815	-9.272941200498664	47.31752636009578	0.8258466288828793	0	0	0	29.78357198717961	-13.91287414985815	-9.272941200498664	47.31752636009578	0.8258466288828793	0	0	0	-6.121245679359009	-1.34224970729713	9.906913347835795	26.08401902976137	-10.27562911216449	9.398839812136293	47.12851059490238	135.315434559088	0	0	28.67950080454798	-3.461316383547631	17.18869572635959	46.48705062699231	125.5843041598583	0	0
0.14	-6.67492733182192	-4.695481134369201	30.14052409481146	0	0.9399999999999999	0	29.787198703749	-13.90974047881772	-9.273312249318053	47.31872566863476	0.8258675607656317	0	0	0	29.787198703749	-13.90974047881772	-9.273312249318053	47.31872566863476	0.8258675607656317	0	0	0	-6.105121827261552	-1.333975581094828	9.904937639794058	26.08252782354133	-10.33977664706331	9.42810864330581	47.06347902767315	135.3484452504489	0	0	28.66015229456479	-3.373536570596417	17.1436241643385	46.45952572786835	125.6344938214932	0	0
